Patient4_TMGait_0pt4_01_right_38_EMG.mot
version=1
nRows=33
nColumns=33
inDegrees=no
endheader
time	1LAddLong	2LGlutMax	3LGlutMed	4LIliopsoas	5LSemiMemb	6LBicFemLong	7LRecFem	8LVastMed	9LVastLat	10LGasMed	11LTibAnt	12lTibPost	13LPeroneusLong	14LSol	15LExtDigLong	16LFlexDigLong	17RAddLong	18RGlutMax	19RGlutMed	20RIliopsoas	21RSemiMemb	22RBicFemLong	23RRecFem	24RVastMed	25RVastLat	26RGasMed	27RTibAnt	28RTibPost	29RPeroneusLong	30RSol	31RExtDigLong	32RFlexDigLong
49.6	-0.002441	-0.2388	-0.095215	-0.001373	0.015106	0.020599	0.027924	0.004578	-0.052948	0.011444	0.01358	-0.044861	-0.18478	-0.15869	0.004578	-0.21271	-0.01236	-0.050049	0.20783	0.010071	0.024109	0.025177	0.002594	-0.059052	0.000763	0.012512	-0.25497	-0.002289	0.4364	-0.1738	-0.003052	0.005188
49.601	-0.002899	-0.20889	0.031128	0.016479	0.001526	0.037689	0.071564	0.005951	-0.039063	-0.034637	0.007935	-0.063019	0.18127	-0.027161	-0.009766	0.001831	-0.008698	-0.066071	0.10544	0.023499	-0.032043	0.048676	-0.041351	-0.046997	0.004272	0.010681	-0.22644	0.000153	0.26398	-0.072479	-0.002136	0.005646
49.602	-0.004425	-0.19333	0.089874	0.027161	0.00473	0.003052	0.065918	0.002899	-0.028992	-0.047607	-0.010376	-0.017548	-0.002441	0.32913	-0.015106	0.045166	0.001373	-0.11093	-0.13611	-0.028534	-0.023041	0.076141	-0.023651	-0.058441	0.003052	-0.000153	0.006104	-0.00412	-0.031433	0.037079	0.001831	-0.002747
49.603	0.004883	-0.22034	0.003052	0.014038	0.012054	-0.015411	0.003357	-0.003662	0.056763	-0.018005	-0.027008	0.007477	0.12405	0.3418	0.000763	0.0383	0.007629	-0.12039	0.062561	-0.11795	0.019226	0.009613	-0.02243	-0.093079	0.014343	-0.002136	-0.084076	-0.005493	-0.14725	0.053558	-0.00351	-0.002289
49.604	0.005035	-0.18982	-0.00946	0.015106	0.004883	0.032043	-0.040741	0.010681	0.085602	0.005188	-0.029907	0.07309	0.30945	-0.06012	-0.027466	0.036621	0.032959	-0.060883	0.10025	-0.15213	-0.072784	-0.003967	0.03479	-0.10178	0.002136	-0.004883	0.050049	-0.007477	-0.12665	0.003967	0	-0.00061
49.605	0.00061	-0.17563	0.046997	-0.00351	-0.038147	0.045471	-0.0914	0.020142	0.066833	-0.014954	-0.019989	-0.022888	0.07843	-0.57938	-0.012665	-0.019073	0.045471	0.007172	0.029449	-0.02594	-0.040436	0.013428	0.000153	-0.087128	0.005646	-0.003967	0.13489	0.003052	-0.097809	-0.00946	-0.003967	-0.00473
49.606	0.010071	-0.16403	-0.04776	0.017242	-0.070801	-0.000153	-0.025787	0.00824	0.044098	-0.037842	0.007629	-0.049591	-0.1915	-0.59448	-0.007477	0.007935	0.024109	-0.001221	0.15259	0.050049	-0.10925	0.06958	-0.000153	-0.052032	0.009766	0.000153	0.028687	0.000458	-0.085602	0.041504	-0.003967	-0.007019
49.607	0.014191	-0.13168	-0.079498	0.000458	0.031738	-0.044861	-0.017548	-0.007629	0.027771	-0.044403	0.01358	-0.007935	-0.14954	0.017242	0.005035	0.021973	0.006866	-0.056305	0.38269	0.012512	-0.11993	0.11871	-0.017548	-0.049133	0.042725	-0.004578	-0.14893	-0.001526	-0.14023	0.030518	-0.003662	-0.006256
49.608	0.018311	-0.13657	-0.032196	0.004883	0.069122	-0.06012	0.041046	-0.008545	0.017242	0.033112	-0.002441	0.006714	-0.073547	0.41351	0.018921	0.010071	0.002136	-0.040741	0.35523	0.033875	-0.18921	0.045929	-0.042419	0.002136	0.019989	-0.002136	-0.32105	-0.005341	-0.078583	-0.013123	-0.001526	-0.00412
49.609	0.015717	-0.075378	0.001526	-0.008545	0.052795	-0.035706	0.022736	0.005341	-0.004272	0.14313	0.003815	-0.002441	-0.092316	0.31006	-0.000458	0.002441	0.014038	-0.005035	-0.10071	0.026093	-0.32684	0.060577	-0.036774	0.002594	0.019226	0.001831	-0.13611	0.000153	0.03067	0.011139	-0.002747	0.000305
49.61	0.017853	-0.11841	0.036469	-0.015564	0.054016	-0.041046	-0.027466	0.003052	-0.010986	0.20187	0.014648	-0.008698	-0.12177	0.16617	-0.004272	-0.00473	0.00885	-0.047913	-0.085907	0.012512	-0.392	0.10254	0.000916	-0.03006	0.006104	0.002136	0.040283	-0.001373	0.22614	0.003967	-0.002441	-0.005798
49.611	0.014191	-0.14328	-0.003052	0.010376	0.03952	-0.027466	-0.056305	-0.04425	0.032959	0.24933	0.019379	-0.005646	-0.13229	0.12741	0.015869	-0.016327	-0.012054	-0.076294	0.10498	0.03479	-0.09903	0.069275	-0.010681	-0.030518	0.022736	0.003357	0.24719	-0.000153	0.34286	-0.014954	0.000305	-0.005493
49.612	0.009308	-0.15396	-0.028534	-0.016174	0.039673	-0.024414	0.009003	0.010834	0.014801	0.12146	0.013123	-0.000305	-0.08667	0.041199	-0.006104	-0.002136	-0.036926	-0.098877	0.087433	0.026245	0.25864	0.058594	-0.024414	0.007172	0.005646	0.004425	0.063171	-0.006409	0.28305	-0.028534	-0.00824	-0.000763
49.613	0.01709	-0.13534	0.005341	0.001373	0.027618	0.003967	0.066681	0.000305	0.00824	-0.27542	-0.024414	-0.006561	-0.046692	0.079651	-0.001221	-0.005951	-0.036774	-0.06958	0.078735	0.017242	0.42709	0.019836	-0.024567	0.003204	0.006104	0.001831	-0.26749	-0.000153	0.39276	0.005035	-0.001831	-0.002747
49.614	0.010529	-0.12497	-0.15595	-0.003357	0.019226	0.02121	0.027771	0.005035	0.020599	-0.45334	-0.02533	-0.006866	0.12878	0.11337	-0.006561	0.002136	-0.021057	-0.07431	0.086517	-0.020294	0.19714	-0.02594	0.001831	0.00412	-0.006409	0.001373	-0.23804	-0.003662	0.27741	0.027161	-0.00351	0.001526
49.615	0.000916	-0.067291	-0.10864	-0.002747	-0.00351	0.025635	0.028687	0.001373	0.004425	-0.38834	-0.002594	0.000153	0.13184	0.16449	-0.005341	-0.00061	-0.003357	-0.019226	0.15411	-0.023956	0.058746	-0.053711	-0.028534	-0.012054	-0.007019	0.002899	-0.13153	-0.002899	0.057831	0.076599	-0.002594	-0.001831
49.616	0.004883	-0.067291	0.003204	-0.009613	-0.013885	-0.000153	0.009918	0.000458	-0.002899	-0.21133	0.044403	0.006561	-0.041199	0.11902	-0.006409	-0.02121	-0.014343	-0.035095	0.15091	-0.062103	0.023956	-0.030212	0.023193	-0.025177	-0.007629	-0.001373	-0.013428	-0.003052	-0.20584	0.1236	-0.001068	-0.001221
49.617	0.00946	-0.089417	0.077667	-0.013428	0.021973	0.009308	0.022583	-0.003662	-0.007935	-0.055847	0.023651	0.007477	-0.010071	-0.003052	-0.02594	0.007629	0.011902	-0.055695	0.10742	-0.014648	0.042877	-0.02594	0.04837	-0.035553	0.006256	-0.008087	0.041351	-0.004578	-0.38376	0.074615	-0.00061	-0.014496
49.618	-0.001068	-0.091095	0.04776	0.000458	0.054169	-0.001373	0.029144	0.004425	0.015411	0.083618	0.002136	0.053864	-0.069427	-0.043793	-0.012054	0.019989	0.009918	-0.07431	-0.080872	0.006714	-0.014038	0.001068	0.023956	-0.052032	-0.014038	-0.006561	-0.012817	0.000458	-0.53055	0.054016	0.007172	-0.011139
49.619	-0.003967	-0.084076	-0.16846	0.00412	0.042267	0.014954	-0.000153	0.005035	0.023499	0.15518	0.019989	0.092926	-0.04837	0.024261	0.005646	0.011139	0.015869	-0.062714	-0.16235	0.11078	-0.0383	0.036926	-0.010071	-0.058136	0.001373	-0.007782	-0.11292	-0.000458	-0.14847	0.000763	-0.000153	-0.007782
49.62	-0.017242	-0.053253	-0.01236	0.026703	0.028687	-0.021667	-0.055389	0.007477	0.026093	0.10544	0.010529	-0.22842	0.031128	0.069733	0.02121	0.027466	0.010071	-0.083008	-0.077667	0.11932	-0.031738	0.031128	0.017548	-0.017853	-0.001678	0	-0.1651	-0.001831	0.15961	0.058594	-0.001678	-0.012207
49.621	0.00885	-0.032654	0.19882	0.009766	0.024872	-0.015411	0.015259	0	-0.00061	0.043793	0.006409	0.10651	0.16022	0.075073	0.029602	0.018768	0.015411	0.007629	0.23331	0.040588	0.04837	0.02182	-0.003357	-0.032043	0.026398	0.002594	-0.06897	-0.003357	0.47409	0	-0.001678	-0.010223
49.622	0.013275	-0.02243	0.29755	0.015411	0.00351	-0.007019	0.021057	0	0.053406	0.10559	0.016174	0.014191	0.051575	0.040588	0.028229	0.010834	-0.008087	-0.032654	0.33478	-0.046082	0.069885	0.005035	-0.02243	-0.056763	0.012665	-0.007324	0.097046	0.000763	0.55542	-0.059967	-0.001678	-0.01236
49.623	-0.000153	-0.072174	0.20264	-0.025177	-0.012817	-0.005493	0.013123	0	0.030518	-0.025024	-0.00946	-0.04364	-0.177	-0.038147	0.017548	-0.000153	0.002441	-0.05249	0.13428	-0.001831	0.00473	-0.007019	0.005646	-0.012817	0.0354	-0.011597	0.17273	-0.002747	0.51392	-0.029907	-0.002747	-0.017395
49.624	0.006409	-0.072632	0.18494	-0.00412	-0.030212	-0.003204	0.053406	0.00473	0.009613	0.021667	0.029602	-0.014496	-0.16953	-0.055542	0.00946	-0.001984	0.002899	-0.10757	0.036926	0.067749	-0.009003	-0.028687	-0.10498	-0.041504	0.02533	-0.018311	0.085754	0.000305	0.47348	-0.018311	-0.00061	-0.02655
49.625	0.003357	-0.058441	0.14297	0.007629	-0.002441	-0.001373	0.061493	0.006256	-0.018311	0.027771	0.007324	-0.023499	0.06012	0.019836	0.041504	0.005493	0.003204	-0.063019	-0.31067	0.1294	-0.016479	-0.009308	-0.076752	-0.04776	0.028534	-0.007629	-0.04715	-0.000305	-0.021973	-0.094757	-0.002899	-0.015106
49.626	0.007935	0.001831	0.11536	-0.000916	0.011902	0.013275	0.064087	0.007324	-0.032654	0.089722	-0.000153	-0.008545	-0.11139	0.072327	-0.016632	0.006866	0.005341	-0.030518	-0.32913	0.080414	-0.005188	-0.019379	-0.052795	-0.048676	0.021057	-0.004883	-0.12451	0.000458	-0.13367	-0.15945	0.000763	-0.007019
49.627	0.005951	0.008545	0.091095	0.002899	0.011444	-0.001068	-0.002136	0.010834	-0.080261	0.14282	0.025177	-0.001221	0.29083	0.086365	-0.014343	0.010071	0.016022	-0.025177	-0.43961	0.000458	-0.001831	-0.033112	-0.072937	-0.07309	0.025024	-0.002136	0.0354	-0.003967	-0.17212	-0.19791	-0.003204	0
49.628	-0.001984	-0.028534	0.039673	-0.004578	0.060425	-0.013733	-0.094452	0.012817	-0.059052	0.071106	-0.007324	-0.004425	0.59815	0.098419	0.002136	0.006256	0.013428	0.017853	-0.16327	-0.1088	-0.016022	-0.046997	-0.03952	-0.042114	0.032959	0.003357	0.35553	-0.000305	-0.42969	-0.20996	-0.00351	0.005798
49.629	0.002441	-0.084991	0.06546	0.009613	0.019836	-0.015564	-0.070801	0.022736	-0.050812	-0.050201	-0.011749	-0.018005	0.35156	0.15808	0.013428	-0.011597	0.034943	0.01358	0.5542	-0.080414	-0.084839	-0.054016	-0.057678	-0.032959	0.031281	0.000763	0.68726	-0.004578	-0.31418	-0.18463	-0.001678	0.005341
49.63	-0.006866	-0.079193	0.053864	0.00061	-0.000153	0.017395	-0.028992	0.029144	-0.075531	-0.062866	0.010376	-0.003967	-0.41061	0.17731	0.010681	-0.002136	0.048676	-0.035706	0.77637	-0.04303	-0.048065	-0.075989	-0.079498	-0.10147	0.025787	-0.001984	0.51636	-0.003052	0.015717	0.040588	-0.000458	0.012512
49.631	-0.000153	-0.063019	0.039673	0.023804	-0.053711	0.023499	-0.058441	0.034485	-0.050507	-0.083313	0.02594	0.00412	-0.60867	0.11383	-0.045776	0.010834	0.067139	-0.052643	0.6279	0.008698	-0.045471	-0.029602	-0.063477	-0.14099	0.019531	-0.00885	0.28168	-0.00473	0.13031	0.16602	-0.00412	0.009766
49.632	-0.007935	-0.059814	0.045624	0.020447	-0.049744	0.011292	-0.0737	0.026245	0.062561	-0.032959	0.013428	-0.001068	-0.26718	0.038147	-0.11932	0.001831	0.01297	-0.072937	0.50888	0.019684	-0.074768	0.013733	-0.067139	-0.068359	0.032349	-0.009155	0.11093	-0.00061	0.16373	0.14664	0.001984	0.020142
